<svg xmlns="http://www.w3.org/2000/svg" viewBox="0 0 15 12.95"><defs><style>.cls-1{fill:none;}.cls-2{fill:#026cb6;}</style></defs><title>Artboard 114</title><g id="socio-economy_people" data-name="socio-economy &amp; people"><g id="box-9" data-name="box"><rect class="cls-1" x="-2.27" y="-3.52" width="20" height="20" rx="4" ry="4"/></g><g id="icons-8" data-name="icons"><g id="blue-9" data-name="blue"><path class="cls-2" d="M4.16,1.1A1.11,1.11,0,0,1,2,1.1a1.11,1.11,0,0,1,2.21,0Zm-1,7.54.24,4.06a.26.26,0,0,0,.51,0l.22-4.06h.72L4.12,4.09l1.49,3A.27.27,0,0,0,6,7.2a.26.26,0,0,0,.14-.34S5,3.9,4.72,3.35s-.53-.89-1.56-.89H3c-1,0-1.29.33-1.56.89S0,6.86,0,6.86a.26.26,0,0,0,.14.34A.27.27,0,0,0,.5,7.06L2,4.09,1.25,8.64H2l.23,4.06a.26.26,0,0,0,.51,0l.23-4.06ZM11.94,0A1.1,1.1,0,1,0,13,1.1,1.1,1.1,0,0,0,11.94,0Zm1.14,6.48.08-2.4,1.34,3a.26.26,0,1,0,.48-.2s-1-3-1.22-3.52-.69-.88-1.71-.88h-.21c-1,0-1.45.33-1.72.88S8.91,6.86,8.91,6.86A.26.26,0,0,0,9,7.2a.26.26,0,0,0,.34-.14l1.35-3,.07,2.4-.21,6A.42.42,0,0,0,11,13h0a.42.42,0,0,0,.43-.4l.49-5,.49,5a.43.43,0,0,0,.43.4h0a.44.44,0,0,0,.41-.46l-.22-6ZM7.5,6.69a.67.67,0,0,0-.68.67.68.68,0,1,0,1.35,0A.67.67,0,0,0,7.5,6.69Zm0,4,.3,2.12a.28.28,0,0,0,.26.17.28.28,0,0,0,.26-.19.74.74,0,0,0,0-.15L8.2,10l0-.89c0-.31,0-.22.38-.42a5.34,5.34,0,0,0,1-1.19.51.51,0,0,0,.09-.18.17.17,0,0,0-.13-.2.22.22,0,0,0-.18.08s-.73,1-1.25,1a2.52,2.52,0,0,0-.57-.08H7.43a2.74,2.74,0,0,0-.57.08c-.51-.09-1.2-1-1.25-1a.19.19,0,0,0-.17-.08.18.18,0,0,0-.14.2.52.52,0,0,0,.1.18,5.07,5.07,0,0,0,1,1.19c.34.2.35.11.38.42l0,.89-.12,2.59a.74.74,0,0,0,0,.15.28.28,0,0,0,.26.19.26.26,0,0,0,.25-.17l.31-2.12"/></g></g></g></svg>