<svg xmlns="http://www.w3.org/2000/svg" viewBox="0 0 15 12.14"><defs><style>.cls-1{fill:none;}.cls-2{fill:#026cb6;}</style></defs><title>Artboard 2</title><g id="clusters"><g id="box-11" data-name="box"><rect class="cls-1" x="-2.5" y="-3.93" width="20" height="20" rx="4" ry="4"/></g><g id="icons-10" data-name="icons"><g id="blue-11" data-name="blue"><path class="cls-2" d="M5.4,4.7A.69.69,0,1,1,4.71,4,.69.69,0,0,1,5.4,4.7ZM4.78,9.43,4.93,12a.16.16,0,0,0,.32,0l.14-2.55h.45L5.38,6.57l.94,1.87a.17.17,0,0,0,.21.09.17.17,0,0,0,.09-.21s-.69-1.87-.86-2.21-.34-.56-1-.56H4.64c-.64,0-.81.21-1,.56S2.8,8.32,2.8,8.32a.17.17,0,0,0,.09.21.17.17,0,0,0,.21-.09L4,6.57,3.57,9.43H4L4.16,12a.17.17,0,0,0,.17.16A.16.16,0,0,0,4.49,12l.14-2.55ZM10.29,4A.69.69,0,1,0,11,4.7.69.69,0,0,0,10.29,4ZM11,8.07l.05-1.5.84,1.87a.17.17,0,0,0,.21.09.18.18,0,0,0,.09-.22s-.6-1.86-.77-2.2-.43-.56-1.07-.56h-.13c-.65,0-.91.21-1.08.56s-.76,2.2-.76,2.2a.16.16,0,0,0,.08.22.17.17,0,0,0,.21-.09l.85-1.87,0,1.5-.13,3.78a.27.27,0,0,0,.25.29h0a.27.27,0,0,0,.27-.25L10.29,9l.31,2.92a.27.27,0,0,0,.27.25h0a.27.27,0,0,0,.25-.29L11,8.07ZM7.5,8.21a.42.42,0,1,0,.42.42A.42.42,0,0,0,7.5,8.21Zm0,2.49L7.69,12a.17.17,0,0,0,.16.11A.18.18,0,0,0,8,12v-.09L7.94,10.3l0-.56c0-.19,0-.13.25-.26a3.55,3.55,0,0,0,.61-.75.6.6,0,0,0,.06-.11.12.12,0,0,0-.09-.13.16.16,0,0,0-.11,0s-.46.61-.78.66a1.4,1.4,0,0,0-.36,0H7.46a1.4,1.4,0,0,0-.36,0c-.32,0-.76-.63-.78-.66a.16.16,0,0,0-.11,0,.12.12,0,0,0-.09.13.6.6,0,0,0,.06.11,3.55,3.55,0,0,0,.61.75c.22.13.23.07.25.26l0,.56L7,11.93S7,12,7,12a.16.16,0,0,0,.16.12A.17.17,0,0,0,7.31,12L7.5,10.7m7.38-5.2a.66.66,0,0,0-.16-.92L8.6.33a2,2,0,0,0-2.2,0L.28,4.58a.66.66,0,0,0-.16.92A.66.66,0,0,0,1,5.67L7.15,1.41a.73.73,0,0,1,.7,0L14,5.67a.68.68,0,0,0,.38.12A.65.65,0,0,0,14.88,5.5Z"/></g></g></g></svg>