<svg xmlns="http://www.w3.org/2000/svg" viewBox="0 0 15.8 15"><defs><style>.cls-1{fill:none;}.cls-2{fill:#026cb6;}</style></defs><title>Artboard 90</title><g id="disaster"><g id="box-10" data-name="box"><rect class="cls-1" x="-2.1" y="-2.5" width="20" height="20" rx="4" ry="4"/></g><g id="icons-9" data-name="icons"><g id="blue-10" data-name="blue"><path class="cls-2" d="M7.38,1.19a1.41,1.41,0,1,1-2.79.45A1.4,1.4,0,0,1,5.75,0,1.41,1.41,0,0,1,7.38,1.19Zm-.44,5.6,1.25,2a.61.61,0,0,0,1.05-.63l-.31-.57c-.28-.49-.55-1-.82-1.48l-.56-1c-.06-.11-.13-.25-.19-.38C7,4,6.48,2.88,5.3,3a5.5,5.5,0,0,0-3,1.42A9.61,9.61,0,0,0,.22,6.76a1.62,1.62,0,0,0-.1.18h0a.61.61,0,0,0,0,.65.63.63,0,0,0,.54.31.57.57,0,0,0,.53-.32h0a1.74,1.74,0,0,1,.11-.18A10.35,10.35,0,0,1,3.05,5.35a3.34,3.34,0,0,1,1-.54L3.76,7.72a6.19,6.19,0,0,1-.19,1.06L3,10.68a2.88,2.88,0,0,1-.44.83L1.13,13.32c-.18.23-.39.49-.22.85a.61.61,0,0,0,.56.35c.28,0,.43-.16.62-.37l1.48-1.59a5.42,5.42,0,0,0,.78-1.13l.73-1.5L7.8,14.49a.78.78,0,0,0,.67.51h0A.64.64,0,0,0,9,14.72a.8.8,0,0,0-.05-.82L6.74,9.13a1.71,1.71,0,0,1-.09-.78Zm2.3,5h3.29v1l3.27-1.89L12.53,9v1H9.24Z"/></g></g></g></svg>