<svg xmlns="http://www.w3.org/2000/svg" viewBox="0 0 15 10.71"><defs><style>.cls-1{fill:none;}.cls-2{fill:#026cb6;}</style></defs><title>Artboard 15</title><g id="clusters"><g id="box-11" data-name="box"><rect class="cls-1" x="-2.5" y="-4.64" width="20" height="20" rx="4" ry="4"/></g><g id="icons-10" data-name="icons"><g id="blue-11" data-name="blue"><path class="cls-2" d="M7.57,1.23C7.06.74,4.08-1,0,.77V10.4H6.18a2.16,2.16,0,0,0,1.3.31,2.2,2.2,0,0,0,1.31-.31H15V.77A7.66,7.66,0,0,0,7.57,1.23ZM7,9.8c0-.33-2.9-2.26-6.25-.15V1.48A5.21,5.21,0,0,1,3.31.87C5.36.87,7,1.54,7,2.79Zm7.25-.15C10.93,7.54,8,9.47,8,9.8v-7C8,1.54,9.69.87,11.74.87a5.14,5.14,0,0,1,2.53.61Z"/></g></g></g></svg>