<svg xmlns="http://www.w3.org/2000/svg" viewBox="0 0 15 15"><defs><style>.cls-1{fill:none;}.cls-2{fill:#026cb6;}</style></defs><title>Artboard 19</title><g id="clusters"><g id="box-11" data-name="box"><rect class="cls-1" x="-2.5" y="-2.5" width="20" height="20" rx="4" ry="4"/></g><g id="icons-10" data-name="icons"><g id="blue-11" data-name="blue"><path class="cls-2" d="M15,8.79h0a8.26,8.26,0,0,1-1,3.41S12.62,15,8.28,15s-5.75-2.77-5.75-2.77a8.24,8.24,0,0,1-1-3.44h0V8.7a1.92,1.92,0,0,1,.89-1.46l.61.39a1.07,1.07,0,0,0-.59.82c0,1.05,2.6,1.9,5.81,1.9s5.81-.85,5.81-1.9c0-.72-1.25-1.35-3.08-1.67V6c2.34.46,4,1.48,4,2.68ZM3.79,4.27A1.29,1.29,0,0,0,4,5.13a2,2,0,0,0,.73.71,1.88,1.88,0,0,0-.24-.93,2.53,2.53,0,0,0-.6-.7A11.73,11.73,0,0,0,2.65,2.8l-.82-.86s.29.35.78.89A13.06,13.06,0,0,1,3.79,4.27ZM5.85,8.79a3.63,3.63,0,0,0,.89.72,3,3,0,0,0,1.18.34A2.13,2.13,0,0,0,7,8.91a1.61,1.61,0,0,0-1.11-.19C5.18,8.28,4.53,7.83,4,7.51c-.74-.46-1.23-.7-1.23-.7s.47.26,1.2.75C4.48,7.89,5.1,8.35,5.85,8.79ZM6.3,6.38a1.44,1.44,0,0,0,0,1,2.24,2.24,0,0,0,.74,1A2.26,2.26,0,0,0,7,7.24a2.78,2.78,0,0,0-.59-.92A12.3,12.3,0,0,0,5.19,4.48L4.35,3.35,5.14,4.5A15.31,15.31,0,0,1,6.3,6.38ZM4.88,7.59a3.35,3.35,0,0,0,.85.64,2.84,2.84,0,0,0,1.11.3A2.08,2.08,0,0,0,6,7.67a1.51,1.51,0,0,0-1-.15c-.71-.39-1.32-.8-1.81-1.1C2.44,6,2,5.79,2,5.79s.44.23,1.13.68C3.59,6.77,4.18,7.19,4.88,7.59Zm-1-1.19A3,3,0,0,0,4.67,7a2.75,2.75,0,0,0,1,.26,1.78,1.78,0,0,0-.79-.77,1.37,1.37,0,0,0-1-.13c-.67-.36-1.24-.73-1.7-1C1.59,5,1.17,4.77,1.17,4.77s.41.21,1.06.61C2.67,5.66,3.22,6,3.88,6.4Zm-1-1.73A1.49,1.49,0,0,0,3.59,5a1.13,1.13,0,0,0-.34-.74A1.16,1.16,0,0,0,2.52,4,19.68,19.68,0,0,0,.05,2.17l0,0s1.14.77,2.49,2A1.25,1.25,0,0,0,2.85,4.67Zm0,.56a3.3,3.3,0,0,0,.74.53A2.42,2.42,0,0,0,4.52,6a1.73,1.73,0,0,0-.74-.7,1.36,1.36,0,0,0-.88-.11c-.62-.32-1.15-.66-1.58-.9a9.89,9.89,0,0,0-1-.52s.39.19,1,.56C1.71,4.56,2.22,4.9,2.83,5.23Zm2.25.07a1.31,1.31,0,0,0,.11.93,1.92,1.92,0,0,0,.74.83,2.11,2.11,0,0,0-.19-1,2.78,2.78,0,0,0-.6-.81A11.51,11.51,0,0,0,3.94,3.6l-.83-1,.79,1A13.87,13.87,0,0,1,5.08,5.3ZM9.72,6.43a1.28,1.28,0,0,0-.41.8,1.94,1.94,0,0,0,.14,1,2.09,2.09,0,0,0,.4-.9,2.57,2.57,0,0,0,0-1,10.71,10.71,0,0,0-.1-1.89c-.09-.75-.16-1.21-.15-1.21l.1,1.21A12.46,12.46,0,0,1,9.72,6.43ZM9.29,5.2A1.23,1.23,0,0,0,9,6a1.71,1.71,0,0,0,.2.94,1.93,1.93,0,0,0,.31-.86,2.55,2.55,0,0,0-.1-.87,11,11,0,0,0-.2-1.74L9,2.33l.17,1.11A11.92,11.92,0,0,1,9.29,5.2ZM8.8,4a1.15,1.15,0,0,0-.26.73,1.67,1.67,0,0,0,.24.85A1.64,1.64,0,0,0,9,4.77,2.16,2.16,0,0,0,8.87,4a10.25,10.25,0,0,0-.29-1.58l-.25-1,.21,1A11.55,11.55,0,0,1,8.8,4Zm.87,5.61a2.13,2.13,0,0,0,.49-.93,2.7,2.7,0,0,0,0-1,11.61,11.61,0,0,0,0-2c0-.8-.1-1.31-.1-1.31l.05,1.31a12.29,12.29,0,0,1-.05,2.06,1.38,1.38,0,0,0-.5.82A2,2,0,0,0,9.67,9.61ZM7.2,3.21a2,2,0,0,0,.35.63,1.78,1.78,0,0,0,.6.48,1.36,1.36,0,0,0-.28-.76,1,1,0,0,0-.6-.37c-.34-.44-.6-.86-.82-1.18s-.54-.71-.54-.72.21.27.51.74S6.88,2.77,7.2,3.21Zm.21-.4a1.21,1.21,0,0,0,.41.48.82.82,0,0,0,0-.65.92.92,0,0,0-.42-.45A17.9,17.9,0,0,0,6.28,0l0,0A21.83,21.83,0,0,1,7.36,2.26.92.92,0,0,0,7.41,2.81Zm.5,2.3a1.92,1.92,0,0,0,.65.52,1.5,1.5,0,0,0-.3-.83,1.1,1.1,0,0,0-.65-.41C7.26,3.91,7,3.45,6.74,3.1a9.67,9.67,0,0,0-.58-.78s.23.3.55.8.48.81.83,1.3A2.64,2.64,0,0,0,7.91,5.11Zm.32-2.28a1,1,0,0,0-.18.68,1.41,1.41,0,0,0,.28.76,1.54,1.54,0,0,0,.15-.76,1.82,1.82,0,0,0-.19-.71,8.72,8.72,0,0,0-.36-1.43L7.64.47s.09.35.25.91A10.81,10.81,0,0,1,8.23,2.83ZM7.85,5.62a2.34,2.34,0,0,0,.38.75A2.27,2.27,0,0,0,8.92,7a1.47,1.47,0,0,0-.3-.91,1.11,1.11,0,0,0-.69-.45c-.38-.53-.68-1-.93-1.41a9.43,9.43,0,0,0-.61-.85s.24.32.58.87C7.2,4.59,7.48,5.09,7.85,5.62ZM4.21,8.92s.41.24,1.06.7l.14,0C4.68,9.17,4.21,8.93,4.21,8.92Zm5.18.92a1.36,1.36,0,0,0-.3-.35c0-.1-.07-.18-.11-.26a3.44,3.44,0,0,0,.5.4v0c0,.09,0,.18.08.27h.12c-.07-.26-.16-.51-.25-.75a1.42,1.42,0,0,0-.17-.42L9,8.14l.22.14a1.63,1.63,0,0,0-.3-1,1.17,1.17,0,0,0-.56-.44l-.51-1s.16.37.45,1l-.12,0c-.39-.57-.7-1.12-1-1.53-.38-.59-.65-.92-.64-.92s.24.35.6,1c.25.41.54,1,.92,1.52a2.57,2.57,0,0,0,.39.82A1.75,1.75,0,0,0,8.88,8L9,8.34A1.23,1.23,0,0,0,8.42,8l-.12-.2c-.26-.54-.53-1-.75-1.42C7.05,5.52,6.72,5,6.72,5l.77,1.43.18.35c-.08-.15-.16-.28-.24-.4-.39-.64-.67-1-.67-1s.26.38.63,1c.22.38.47.87.78,1.39a8.51,8.51,0,0,1,.38,1,1.79,1.79,0,0,0-.1.26c-.34-.59-.62-1.14-.87-1.56l-.23-.38a16.1,16.1,0,0,0-1-1.65L5.55,4.14l.78,1.29a14.8,14.8,0,0,1,1.12,2.1,1.55,1.55,0,0,0,0,1.1,2.41,2.41,0,0,0,.72,1.08,2.41,2.41,0,0,0,0-1.1l.29.52a1.89,1.89,0,0,0,0,.78c.33,0,.65,0,1,0ZM4.81,8.62c-.79-.5-1.3-.76-1.3-.76s.5.28,1.27.81c.45.31,1,.72,1.62,1.14l.24,0C5.93,9.38,5.32,9,4.81,8.62Zm5.69.32a11.79,11.79,0,0,0,.14-2.19l0-1.41s0,.54,0,1.41A12.29,12.29,0,0,1,10.4,9a1.51,1.51,0,0,0-.59.84v.05l.67-.07A3.54,3.54,0,0,0,10.5,8.94Z"/></g></g></g></svg>