<svg xmlns="http://www.w3.org/2000/svg" viewBox="0 0 15 15"><defs><style>.cls-1{fill:none;}.cls-2{fill:#026cb6;}</style></defs><title>Artboard 20</title><g id="clusters"><g id="box-11" data-name="box"><rect class="cls-1" x="-2.5" y="-2.5" width="20" height="20" rx="4" ry="4"/></g><g id="icons-10" data-name="icons"><g id="blue-11" data-name="blue"><path class="cls-2" d="M10.36,1c-.47-.39-.8-.29-1.27.55A1.15,1.15,0,0,1,8,2.14V2A1.07,1.07,0,0,0,7.5,0,1.08,1.08,0,0,0,6.42,1.07,1.07,1.07,0,0,0,7,2v.11a1.15,1.15,0,0,1-1.12-.61C5.44.69,5.11.59,4.64,1S2.29,3.61,0,3.41a1.5,1.5,0,0,0,1.69.8,1.53,1.53,0,0,0,1.73.2,1.28,1.28,0,0,0,1.44,0,1.26,1.26,0,0,0,1.36.07,1.29,1.29,0,0,0,.84.21l0,2.59A.7.7,0,0,0,7,7.3s-.77-.17-1.58-.4a5.24,5.24,0,0,1-1.76-.7l.05,0A1.26,1.26,0,0,1,4,6.06,7.5,7.5,0,0,1,5.05,6,4.82,4.82,0,0,1,6,6a.57.57,0,0,0,.57-.41s0,0,0,0c0-.31-.27-.33-.46-.36a1.8,1.8,0,0,0-.59,0c-.71,0-2.89-.13-3.17,1v.08C2.42,7.25,4.49,7.69,6,8A2,2,0,0,0,5.1,9.38c0,.62.45,1.22,1.6,1.89-.87.62-1.45,1.2-1.4,1.9A2.64,2.64,0,0,0,6.88,15h0a5.08,5.08,0,0,1-.74-1.65c-.05-.34.14-.84,1-1.44l0,2.12h0a.32.32,0,1,0,.64,0h0l0-2.07c.78.58,1,1.06.92,1.39A5.26,5.26,0,0,1,8,15H8a2.68,2.68,0,0,0,1.59-1.83c0-.7-.53-1.28-1.41-1.9C9.35,10.6,9.85,10,9.8,9.38A2,2,0,0,0,8.91,8c1.5-.3,3.57-.74,3.67-1.74a.22.22,0,0,1,0-.08c-.28-1.15-2.46-1-3.17-1a1.74,1.74,0,0,0-.58,0c-.2,0-.44,0-.47.36,0,0,0,0,0,0A.58.58,0,0,0,8.92,6a4.82,4.82,0,0,1,.93,0,7.5,7.5,0,0,1,1.06.1,1.14,1.14,0,0,1,.33.11l0,0a5.24,5.24,0,0,1-1.76.7C8.72,7.13,8,7.29,8,7.3H7.9l0-2.57a1.25,1.25,0,0,0,.85-.21,1.26,1.26,0,0,0,1.36-.07,1.28,1.28,0,0,0,1.44,0,1.53,1.53,0,0,0,1.73-.2A1.5,1.5,0,0,0,15,3.41C12.71,3.61,10.84,1.37,10.36,1ZM6.1,9.58c0-.23-.07-.77,1-1.16l0,2.14-.64-.4C6.2,10,6.07,9.74,6.1,9.58Zm2.31.58-.55.34,0-2.05c1,.39.9.91.91,1.13S8.7,10,8.41,10.16Z"/></g></g></g></svg>