<svg xmlns="http://www.w3.org/2000/svg" viewBox="0 0 13.57 15"><defs><style>.cls-1{fill:none;}.cls-2{fill:#026cb6;}</style></defs><title>Artboard 6</title><g id="clusters"><g id="box-11" data-name="box"><rect class="cls-1" x="-3.21" y="-2.5" width="20" height="20" rx="4" ry="4"/></g><g id="icons-10" data-name="icons"><g id="blue-11" data-name="blue"><path class="cls-2" d="M8.07,0a5.51,5.51,0,1,0,5.5,5.51A5.51,5.51,0,0,0,8.07,0ZM5.81,6.21a.66.66,0,0,1,.66-.66.67.67,0,1,1-.66.66ZM8,10.14c-.93,0-1.69-.4-1.69-.89H9.68C9.68,9.74,8.93,10.14,8,10.14ZM9.66,6.88a.67.67,0,1,1,.67-.67A.67.67,0,0,1,9.66,6.88Zm2.5,6.81c0,.72-1.25,1.31-2.81,1.31a3.1,3.1,0,0,1-2.8-1.31c-.34-.6,0,0,0,0a6,6,0,0,0-1.36-1.26,1.63,1.63,0,0,1-1.9.49c-.91-.26-1.51-1-1.33-1.57a.21.21,0,0,1,0-.07L.14,10.81A.19.19,0,0,1,0,10.58a.17.17,0,0,1,.22-.13A19.37,19.37,0,0,1,2.15,11a1.83,1.83,0,0,1,1.76-.29c.87.25,1.45.9,1.35,1.49A4.65,4.65,0,0,1,6.79,13.4h0a5,5,0,0,0,2.57.7A9.74,9.74,0,0,0,12.16,13.69Zm-3.66.2,0,0H8.42c0-.08.09-.16-.05-.21a2.74,2.74,0,0,0,.28,0s.06.1.16.09A1.1,1.1,0,0,0,8.5,13.89Zm.81-.19a.26.26,0,0,1-.09-.41h-.1a.71.71,0,0,1,0,.24s.12,0,.09.13a.29.29,0,0,1-.28.2L9,14h.05C9.05,13.92,9.21,13.75,9.31,13.7Zm.39.14s.05-.1.07-.14h0a.24.24,0,0,1-.18-.13.41.41,0,0,1-.05.09c.13,0,.22.12.11.22a.33.33,0,0,1,.12.11h0Zm-1.5-.41c-.32-.12.2-.34.28-.37s.23,0,.23.09-.2.21-.31.25c.17,0,.13-.05.22-.09a2.14,2.14,0,0,0,.22-.1s0-.08.05-.13.7-.13.61.12a.22.22,0,0,0,.16,0C9.57,13,10,13,10.07,13s.15.25,0,.2a.25.25,0,0,0,0,.08c.17-.07.32-.16.44-.06a.21.21,0,0,1,.07.26h.07c-.13-.25.3-.22.35,0,.29-.2.26.3.27.28s0,0,0,0l0,0c.5-.1.8-.21.81-.2a4,4,0,0,0-2.8-.87,5.11,5.11,0,0,0-2.57.58,3.53,3.53,0,0,0,.54.28,1.24,1.24,0,0,1,.41-.07c0-.48.65.18.27.11a.14.14,0,0,1,0,.19l0,0a.51.51,0,0,1,.16-.11C8,13.67,8.15,13.52,8.2,13.43Zm2.72.13a.2.2,0,0,0,0,.18l.1,0-.08,0S10.92,13.61,10.92,13.56Zm-.48.18c-.17-.08.08-.27.08-.25s-.26.1-.36.12c.12,0,.25,0,.21.16.13,0,.18.05.18.15h0C10.57,13.85,10.56,13.79,10.44,13.74Z"/></g></g></g></svg>