<svg xmlns="http://www.w3.org/2000/svg" viewBox="0 0 14.29 15"><defs><style>.cls-1{fill:none;}.cls-2{fill:#026cb6;}</style></defs><title>Artboard 23</title><g id="clusters"><g id="box-11" data-name="box"><rect class="cls-1" x="-2.86" y="-2.5" width="20" height="20" rx="4" ry="4"/></g><g id="icons-10" data-name="icons"><g id="blue-11" data-name="blue"><path class="cls-2" d="M12.12,9.35a27.14,27.14,0,0,1,1.55,3.92,1.56,1.56,0,1,1-3.09,0A23.57,23.57,0,0,1,12.12,9.35ZM14,7.78V6A2.26,2.26,0,0,0,11.57,3.9H8.4l0-1a.52.52,0,0,0-.52-.52H6.62V1.76a.78.78,0,0,0,.27-.24H9.53A.95.95,0,1,0,10.28,0a1,1,0,0,0-.76.4H6.91A.92.92,0,0,0,5.39.4H2.5A.93.93,0,0,0,1.75,0a1,1,0,0,0,0,1.91.92.92,0,0,0,.74-.39H5.41a.93.93,0,0,0,.27.25V2.4H4.37a.52.52,0,0,0-.52.52v1H0V7H4.28A1.92,1.92,0,0,0,6.1,8.24,2.1,2.1,0,0,0,8.06,7H9.6c.46,0,.63.29.68.86a.51.51,0,0,0-.22.42.51.51,0,0,0,.51.51h3.2a.52.52,0,0,0,.52-.51A.54.54,0,0,0,14,7.78Z"/></g></g></g></svg>